<svg xmlns="http://www.w3.org/2000/svg" viewBox="0 0 48 48">
  <path fill="#12668a" id="tr" d="M43.27,27.62c-2.13,2.13-4.87,3.5-8.57,4.26.01-.09.02-.19.04-.28.04-.31.08-.63.12-.95.09-.75.18-1.55.25-2.34.02-.21.04-.41.05-.6.02-.21.04-.4.05-.62.02-.21.03-.41.05-.62.02-.31.04-.63.05-.93,1.33-.5,2.43-1.2,3.36-2.12,3.89-3.89,3.89-10.22,0-14.1-1.88-1.89-4.39-2.92-7.05-2.92s-5.17,1.03-7.05,2.92c-.85.85-1.52,2.1-2,3.72-.05.15-.1.32-.14.5-.87,3.21-.96,7.27-.94,9.39v.45s.01.14.01.14c.01.97.05,1.58.06,1.61l.03.58.05.72h1.3c.26,0,.52,0,.77.01v.23c0,.22-.01.43-.02.66v.25c-.01.14-.02.3-.03.47v.21s-.01.12-.01.12l-.02.22v.17s-.03.26-.03.26v.13s-.01.11-.01.11l-.02.19c-.01.1-.02.21-.03.33-.03.32-.06.64-.1.97h0s-.01.03-.01.04v.05c-.03.27-.07.54-.11.79v.08s-.03.09-.03.09c-.04.29-.09.57-.15.87-1.28-.01-2.57-.04-3.84-.06-1.29-.03-2.6-.05-3.91-.07-.07-1.7-.14-4.9.01-8.56l.02-.45c.17-3.3.49-6.3.96-8.91.87-4.79,2.22-8.12,4.01-9.91C23.43,1.68,27.49,0,31.82,0s8.39,1.68,11.45,4.74c6.31,6.31,6.31,16.58,0,22.89Z"/>
  <path fill="#d7ae61" id="bl" d="M32.62,24v.22s-.02.23-.02.23v.11s-.01.07-.01.07c-.17,3.24-.49,6.17-.95,8.74l-.03.18c-.88,4.69-2.22,7.96-3.97,9.72-3.06,3.05-7.12,4.73-11.45,4.73s-8.4-1.68-11.45-4.73c-6.31-6.32-6.31-16.58,0-22.9,2.13-2.13,4.86-3.49,8.57-4.26-.03.23-.06.46-.09.7v.05s-.01.01-.01.01c-.04.31-.08.63-.12.95l-.04.44c-.01.08-.02.17-.03.25-.02.2-.04.39-.06.59-.04.39-.07.79-.11,1.21l-.04.6c-.04.52-.08,1.03-.1,1.55-1.33.49-2.43,1.19-3.36,2.11-3.88,3.89-3.88,10.22,0,14.11,1.88,1.88,4.39,2.91,7.05,2.91s5.17-1.03,7.05-2.92c.74-.74,1.36-1.81,1.83-3.17h.05l.14-.58.06-.22.06-.23c.02-.07.03-.13.04-.19.78-3.02.92-6.67.9-9.22,0-.17,0-.32-.01-.46v-.91h-.02c-.02-.49-.03-.81-.04-.85l-.03-.58-.05-.72h-2.08v-.25c0-.21.01-.42.02-.65v-.25s.01-.14.01-.14v-.19c.01-.11.02-.24.03-.36v-.05c.02-.29.04-.58.06-.88.02-.36.06-.72.1-1.11.01-.12.03-.25.05-.4v-.08l.02-.11.02-.15v-.1c.02-.06.03-.12.04-.22.01-.08.03-.17.04-.28.01-.07.02-.14.04-.25.02-.08.03-.17.05-.29.01-.07.02-.13.04-.21.02-.09.03-.19.05-.27,1.29.01,2.59.03,3.76.06,1.17.02,2.59.05,4,.06.08,1.88.14,5-.01,8.57Z"/>
</svg>