<?xml version="1.0" encoding="UTF-8"?>
<svg id="linkcentral-logo" xmlns="http://www.w3.org/2000/svg" viewBox="0 0 256 256">
  <defs>
    <style>
      .cls-1 {
        fill: #12668a;
      }

      .cls-2 {
        fill: #eaeaea;
      }

      .cls-3 {
        fill: #68c8cb;
      }
    </style>
  </defs>
  <rect id="Background" class="cls-2" width="256" height="256" rx="11.22" ry="11.22"/>
  <path id="tr" class="cls-1" d="M192.91,140.98c-7.24,7.24-16.58,11.91-29.15,14.51.04-.32.07-.63.14-.95.14-1.05.28-2.14.42-3.23.32-2.56.6-5.27.84-7.97.07-.7.14-1.4.18-2.04.07-.7.14-1.37.18-2.11.07-.7.11-1.4.18-2.11.07-1.05.14-2.14.18-3.16,4.53-1.69,8.25-4.07,11.42-7.2,13.24-13.24,13.24-34.77,0-47.98-6.39-6.43-14.93-9.94-23.99-9.94s-17.6,3.51-23.99,9.94c-2.88,2.88-5.16,7.13-6.81,12.64-.18.53-.35,1.09-.49,1.69-2.95,10.92-3.27,24.73-3.2,31.96l.04,1.55v.49c.03,3.3.18,5.37.21,5.48l.11,1.97.18,2.46h4.43c.88,0,1.76,0,2.63.04v.77c0,.74-.04,1.48-.07,2.25l-.04.84c0,.49-.04,1.02-.07,1.62v.35l-.04.35v.42l-.07.74-.04.56-.07.88-.04.46v.39l-.07.63c-.03.35-.07.7-.11,1.12-.11,1.09-.21,2.18-.35,3.3v.04s-.04.07-.04.11v.18c-.11.91-.25,1.83-.39,2.7l-.03.28-.07.32c-.14.98-.32,1.93-.53,2.95-4.36-.03-8.75-.14-13.07-.21-4.39-.11-8.85-.18-13.31-.25-.25-5.8-.49-16.68.03-29.12l.07-1.55c.56-11.24,1.65-21.43,3.27-30.31,2.95-16.3,7.55-27.64,13.63-33.72,10.4-10.4,24.24-16.12,38.95-16.12s28.56,5.73,38.95,16.12c21.46,21.46,21.46,56.41,0,77.87Z"/>
  <path id="bl" class="cls-3" d="M156.66,128.65l-.04.74-.03.77-.04.39v.25c-.56,11.03-1.65,21-3.23,29.75l-.11.6c-2.99,15.95-7.55,27.08-13.52,33.09-10.4,10.36-24.24,16.09-38.95,16.09s-28.59-5.73-38.95-16.09c-21.46-21.5-21.46-56.41,0-77.91,7.24-7.24,16.54-11.87,29.15-14.51-.11.77-.21,1.58-.32,2.39l-.04.18v.04c-.14,1.05-.28,2.14-.42,3.23l-.14,1.51c-.04.28-.07.56-.11.84-.07.67-.14,1.33-.21,2-.14,1.33-.25,2.7-.39,4.11l-.14,2.04c-.14,1.76-.28,3.51-.35,5.27-4.53,1.65-8.25,4.04-11.42,7.17-13.21,13.24-13.21,34.77,0,48.02,6.39,6.39,14.93,9.91,23.99,9.91s17.6-3.51,23.99-9.94c2.53-2.53,4.64-6.15,6.22-10.78h.18l.49-1.97.21-.74.21-.77c.07-.25.11-.46.14-.63,2.67-10.29,3.13-22.69,3.06-31.37,0-.56,0-1.09-.04-1.58v-3.09h-.07c-.07-1.65-.11-2.74-.14-2.88l-.11-1.97-.18-2.46h-7.06v-.84c0-.7.04-1.44.07-2.21v-.21l.04-.63v-.49l.04-.63c0-.39.04-.81.07-1.23v-.18c.07-.98.14-1.97.21-2.99.07-1.23.21-2.46.35-3.79.04-.42.11-.84.18-1.37v-.28l.07-.39.07-.53.04-.35c.04-.21.07-.42.11-.74.04-.28.11-.56.14-.95.04-.25.07-.49.14-.84.07-.28.11-.56.18-.98.04-.25.07-.46.14-.7.07-.32.11-.63.18-.91,4.39.04,8.82.11,12.79.21,3.97.07,8.82.18,13.59.21.28,6.39.49,17-.04,29.15Z"/>
</svg>