<?xml version="1.0" encoding="UTF-8"?>
<svg id="linkcentral-logo" xmlns="http://www.w3.org/2000/svg" viewBox="0 0 100 100">
  <circle style="fill:#cfcfce;" cx="50" cy="50" r="50"/>
  <path style="fill:#474748;" d="M44.53,57.1v-9.37c3.22-.12,5.64-.66,7.26-1.62,1.61-.96,2.42-2.58,2.42-4.87v-.86c0-1.55-.46-2.73-1.38-3.55-.92-.82-2.11-1.22-3.58-1.22-1.59,0-2.91.49-3.95,1.47-1.04.98-1.75,2.23-2.11,3.74l-7.47-3.12c.37-1.22.9-2.42,1.59-3.58.69-1.16,1.6-2.2,2.73-3.12,1.12-.92,2.47-1.66,4.04-2.23,1.57-.57,3.4-.86,5.48-.86s4.06.31,5.82.92c1.75.61,3.27,1.47,4.53,2.57,1.27,1.1,2.24,2.43,2.91,3.98.67,1.55,1.01,3.27,1.01,5.14,0,1.72-.29,3.27-.86,4.65-.57,1.39-1.35,2.6-2.33,3.64-.98,1.04-2.12,1.89-3.43,2.54-1.31.65-2.67,1.1-4.1,1.35v4.41h-8.57ZM48.94,72.11c-1.96,0-3.36-.45-4.19-1.35-.84-.9-1.26-2-1.26-3.31v-1.47c0-1.31.42-2.41,1.26-3.31.84-.9,2.24-1.35,4.19-1.35s3.36.45,4.2,1.35c.84.9,1.26,2,1.26,3.31v1.47c0,1.31-.42,2.41-1.26,3.31-.84.9-2.24,1.35-4.2,1.35Z"/>
</svg>